<svg id="Layer_1" data-name="Layer 1" xmlns="http://www.w3.org/2000/svg" viewBox="0 0 276.4 20.96">
    <defs>
        <style>
            .cls-1 {
                fill: #ee3a39;
            }
            
            .cls-2 {
                fill: #fff;
            }
        </style>
    </defs>
    <title>logo</title>
    <path class="cls-1" d="M325.1,108.42h-1.48V88.2h1.48Z" transform="translate(-112.35 -87.83)" />
    <path class="cls-2" d="M114.56,96.52a7.5,7.5,0,0,0,2,1.12,18.17,18.17,0,0,0,2.69.81l1.32-1.32-.63-.13a19.68,19.68,0,0,1-2.53-.67,6,6,0,0,1-1.63-.83,2.72,2.72,0,0,1-.88-1.06,3.43,3.43,0,0,1-.26-1.39A3.18,3.18,0,0,1,116,90.3a7,7,0,0,1,4.11-1,8.42,8.42,0,0,1,2.3.29,5.78,5.78,0,0,1,1.74.79,4.45,4.45,0,0,1,1.19,1.21,4.9,4.9,0,0,1,.66,1.51h1.42a5.5,5.5,0,0,0-2.34-3.88,7.28,7.28,0,0,0-2.26-1,10.58,10.58,0,0,0-2.84-.36,9.77,9.77,0,0,0-2.84.39A6.8,6.8,0,0,0,115,89.3,4.92,4.92,0,0,0,113.55,91a4.69,4.69,0,0,0-.5,2.16,4.62,4.62,0,0,0,.37,1.91A4,4,0,0,0,114.56,96.52Z" transform="translate(-112.35 -87.83)" />
    <path class="cls-2" d="M127.67,100.95a4.48,4.48,0,0,0-1-1.41,5.5,5.5,0,0,0-1.41-1,11.24,11.24,0,0,0-1.71-.68q-.9-.28-1.84-.48h0l-1.34,1.34c.9.21,1.73.41,2.39.61a9.16,9.16,0,0,1,2.19.92,3.12,3.12,0,0,1,1.18,1.21,3.75,3.75,0,0,1,.35,1.71,3.63,3.63,0,0,1-.41,1.73,3.77,3.77,0,0,1-1.17,1.31,5.66,5.66,0,0,1-1.85.83,9.49,9.49,0,0,1-2.43.29,12.82,12.82,0,0,1-2.44-.22,6.26,6.26,0,0,1-2-.76,4.73,4.73,0,0,1-1.51-1.44,5.64,5.64,0,0,1-.83-2.27h-1.46a6.78,6.78,0,0,0,.65,2.56,5.43,5.43,0,0,0,1.6,1.94,7.55,7.55,0,0,0,2.58,1.24,13.22,13.22,0,0,0,3.58.43,9.39,9.39,0,0,0,2.91-.43,7.11,7.11,0,0,0,2.31-1.22,5.66,5.66,0,0,0,1.51-1.87,5.2,5.2,0,0,0,.54-2.37A4.83,4.83,0,0,0,127.67,100.95Z" transform="translate(-112.35 -87.83)" />
    <path class="cls-2" d="M157.77,88.18h-2.09l-2,5.12-1.93,5-1.93,5q-1,2.51-2,5.13h1.57l1.2-3.26c.41-1.1.78-2.15,1.13-3.14l.43-1.27h0l0-.1h0l4.41-11.14,4.69,11.25h-8.06l-.43,1.16h8.92l2.48,6.5H166Z" transform="translate(-112.35 -87.83)" />
    <rect class="cls-2" x="25.49" y="2.84" width="1.48" height="17.76" />
    <polygon class="cls-2" points="18.49 0.37 18.49 1.85 25.49 1.85 25.49 1.85 26.97 1.85 26.97 1.85 34.04 1.85 34.04 0.37 18.49 0.37" />
    <path class="cls-2" d="M214.68,107.26a10.73,10.73,0,0,1-2.16-.24,4.14,4.14,0,0,1-2-1.11,5.18,5.18,0,0,1-1.22-2.26,14,14,0,0,1-.42-3.76V88.2h-1.48V99.94q0,1,.06,2.05a10.44,10.44,0,0,0,.32,2,7.57,7.57,0,0,0,.76,1.85,5.07,5.07,0,0,0,1.35,1.51,6.56,6.56,0,0,0,2.13,1,10.61,10.61,0,0,0,2.6.35Z" transform="translate(-112.35 -87.83)" />
    <path class="cls-2" d="M221.42,88.2V99.89a14.19,14.19,0,0,1-.41,3.75,5.3,5.3,0,0,1-1.19,2.26,4,4,0,0,1-2,1.12,11,11,0,0,1-2.19.24v1.5a9.89,9.89,0,0,0,3.29-.56,5.45,5.45,0,0,0,2.36-1.74,6.87,6.87,0,0,0,1.22-2.78,18,18,0,0,0,.35-3.73V88.2Z" transform="translate(-112.35 -87.83)" />
    <path class="cls-2" d="M183.31,102.92l-.49-1.27a7.06,7.06,0,0,0-.48-1,5.07,5.07,0,0,0-.64-.87,7.38,7.38,0,0,0-.94-.85,5.64,5.64,0,0,0,1.84-.71A4.6,4.6,0,0,0,183.9,97a4.89,4.89,0,0,0,.76-1.57,6.9,6.9,0,0,0,.25-1.89,5.67,5.67,0,0,0-.55-2.67,4.25,4.25,0,0,0-1.49-1.63,6.09,6.09,0,0,0-2.12-.82,12.93,12.93,0,0,0-2.47-.23h-9.11v20.23h1.48V99.3h0V97.82h0V89.67h7.44a7.06,7.06,0,0,1,3.94.9,3.34,3.34,0,0,1,1.32,3,5.28,5.28,0,0,1-.33,2,3,3,0,0,1-1,1.32,4.49,4.49,0,0,1-1.76.73,12.85,12.85,0,0,1-2.57.22h-6V99.3h6.08a3.33,3.33,0,0,1,1.45.3,3.69,3.69,0,0,1,1.1.8,5.36,5.36,0,0,1,.84,1.19,13.22,13.22,0,0,1,.66,1.46l2,5.38h1.63Z" transform="translate(-112.35 -87.83)" />
    <rect class="cls-2" x="82.92" y="2.84" width="1.48" height="17.76" />
    <polygon class="cls-2" points="75.92 0.37 75.92 1.85 82.92 1.85 82.92 1.85 84.39 1.85 84.39 1.85 91.47 1.85 91.47 0.37 75.92 0.37" />
    <path class="cls-2" d="M242.45,91a4.71,4.71,0,0,0-1.66-1.73,6.85,6.85,0,0,0-2.41-.88,16.42,16.42,0,0,0-2.84-.24h-7.35v20.23h1.48V99.89h0V98.41h0V89.67h6a16,16,0,0,1,2.22.15,5.23,5.23,0,0,1,1.86.6A3.32,3.32,0,0,1,241,91.7a4.4,4.4,0,0,1,.47,2.18,5.55,5.55,0,0,1-.31,1.95,3.3,3.3,0,0,1-1,1.41,4.68,4.68,0,0,1-1.78.87,10.21,10.21,0,0,1-2.64.3h-5.12v1.48h5.06a8.4,8.4,0,0,0,5.48-1.55,6.44,6.44,0,0,0,1.26-7.3Z" transform="translate(-112.35 -87.83)" />
    <path class="cls-1" d="M270.32,106.92l-.3,0h-4.6V89.67H270l.3,0V88.23l-.27,0h-6.11v20.21h6.11l.27,0Z" transform="translate(-112.35 -87.83)" />
    <path class="cls-1" d="M277.72,90.68a9.53,9.53,0,0,0-5.85-2.35v1.46a11,11,0,0,1,2.36.46,6.26,6.26,0,0,1,2.67,1.67,6.13,6.13,0,0,1,1.39,2.67,14.58,14.58,0,0,1,.4,3.56,15.37,15.37,0,0,1-.41,3.71,6.5,6.5,0,0,1-1.4,2.76,6.23,6.23,0,0,1-2.67,1.73,10.64,10.64,0,0,1-2.34.47v1.47c5.58-.59,8.39-4,8.39-10.15Q280.27,93.15,277.72,90.68Z" transform="translate(-112.35 -87.83)" />
    <polygon class="cls-1" points="229.17 12.23 234.75 12.23 234.75 12.24 236.23 12.24 236.23 10.75 229.17 10.75 229.17 12.23" />
    <path class="cls-1" d="M347.1,101.05v2.64a9.12,9.12,0,0,1-3.12,2.66,9.33,9.33,0,0,1-4.36,1,8.68,8.68,0,0,1-3.28-.6,6.9,6.9,0,0,1-2.55-1.76,8.17,8.17,0,0,1-1.65-2.85,12.84,12.84,0,0,1,0-7.7,7.91,7.91,0,0,1,1.65-2.81,6.79,6.79,0,0,1,2.54-1.71,8.93,8.93,0,0,1,3.25-.57,9.39,9.39,0,0,1,2.64.35,7.86,7.86,0,0,1,2.11.94A5.44,5.44,0,0,1,345.79,92a4,4,0,0,1,.71,1.67h1.59a6.53,6.53,0,0,0-1-2.38,7.07,7.07,0,0,0-1.87-1.84,8.93,8.93,0,0,0-2.57-1.18,11.15,11.15,0,0,0-3.1-.42,10,10,0,0,0-3.88.73,8.58,8.58,0,0,0-3,2.09,9.55,9.55,0,0,0-2,3.28,12.53,12.53,0,0,0-.7,4.32,12.86,12.86,0,0,0,.69,4.33,9.51,9.51,0,0,0,2,3.32,8.8,8.8,0,0,0,3.06,2.13,10,10,0,0,0,3.94.76,13.25,13.25,0,0,0,2.11-.17,10.13,10.13,0,0,0,2-.53,8.51,8.51,0,0,0,1.8-.94,7.54,7.54,0,0,0,1.55-1.43l.65,2.7h.85v-7.37Z" transform="translate(-112.35 -87.83)" />
    <polygon class="cls-1" points="240.81 2.08 240.81 20.59 242.28 20.59 242.28 4.14 240.81 2.08" />
    <polygon class="cls-1" points="242.84 0.37 240.81 0.37 242.28 2.12 254.62 20.59 256.56 20.59 255.09 18.8 242.84 0.37" />
    <polygon class="cls-1" points="255.09 0.37 255.09 16.91 256.56 18.91 256.56 0.37 255.09 0.37" />
    <path class="cls-1" d="M305.84,96.52a7.5,7.5,0,0,0,2,1.12,18.17,18.17,0,0,0,2.69.81l1.32-1.32L311.2,97a19.68,19.68,0,0,1-2.53-.67,6,6,0,0,1-1.63-.83,2.72,2.72,0,0,1-.88-1.06A3.43,3.43,0,0,1,305.9,93a3.18,3.18,0,0,1,1.39-2.73,7,7,0,0,1,4.11-1,8.42,8.42,0,0,1,2.3.29,5.78,5.78,0,0,1,1.74.79,4.45,4.45,0,0,1,1.19,1.21,4.9,4.9,0,0,1,.66,1.51h1.42a5.5,5.5,0,0,0-2.34-3.88,7.28,7.28,0,0,0-2.26-1,10.58,10.58,0,0,0-2.84-.36,9.77,9.77,0,0,0-2.84.39,6.8,6.8,0,0,0-2.2,1.09A4.92,4.92,0,0,0,304.83,91a4.69,4.69,0,0,0-.5,2.16,4.62,4.62,0,0,0,.37,1.91A4,4,0,0,0,305.84,96.52Z" transform="translate(-112.35 -87.83)" />
    <path class="cls-1" d="M318.95,100.95a4.48,4.48,0,0,0-1-1.41,5.5,5.5,0,0,0-1.41-1,11.24,11.24,0,0,0-1.71-.68q-.9-.28-1.84-.48h0l-1.34,1.34c.9.21,1.73.41,2.39.61a9.16,9.16,0,0,1,2.19.92,3.12,3.12,0,0,1,1.18,1.21,3.75,3.75,0,0,1,.35,1.71,3.63,3.63,0,0,1-.41,1.73,3.77,3.77,0,0,1-1.17,1.31,5.66,5.66,0,0,1-1.85.83,9.49,9.49,0,0,1-2.43.29,12.82,12.82,0,0,1-2.44-.22,6.26,6.26,0,0,1-2-.76,4.73,4.73,0,0,1-1.51-1.44,5.64,5.64,0,0,1-.83-2.27h-1.46a6.78,6.78,0,0,0,.65,2.56,5.43,5.43,0,0,0,1.6,1.94,7.55,7.55,0,0,0,2.58,1.24,13.22,13.22,0,0,0,3.58.43,9.39,9.39,0,0,0,2.91-.43,7.11,7.11,0,0,0,2.31-1.22,5.66,5.66,0,0,0,1.51-1.87,5.2,5.2,0,0,0,.54-2.37A4.83,4.83,0,0,0,318.95,100.95Z" transform="translate(-112.35 -87.83)" />
    <path class="cls-1" d="M375.28,96.52a7.5,7.5,0,0,0,2,1.12,18.17,18.17,0,0,0,2.69.81l1.32-1.32-.63-.13a19.68,19.68,0,0,1-2.53-.67,6,6,0,0,1-1.63-.83,2.72,2.72,0,0,1-.88-1.06,3.43,3.43,0,0,1-.26-1.39,3.18,3.18,0,0,1,1.39-2.73,7,7,0,0,1,4.11-1,8.42,8.42,0,0,1,2.3.29,5.78,5.78,0,0,1,1.74.79,4.45,4.45,0,0,1,1.19,1.21,4.9,4.9,0,0,1,.66,1.51h1.42a5.5,5.5,0,0,0-2.34-3.88,7.28,7.28,0,0,0-2.26-1,10.58,10.58,0,0,0-2.84-.36,9.77,9.77,0,0,0-2.84.39,6.8,6.8,0,0,0-2.2,1.09A4.92,4.92,0,0,0,374.27,91a4.69,4.69,0,0,0-.5,2.16,4.62,4.62,0,0,0,.37,1.91A4,4,0,0,0,375.28,96.52Z" transform="translate(-112.35 -87.83)" />
    <path class="cls-1" d="M388.39,100.95a4.48,4.48,0,0,0-1-1.41,5.5,5.5,0,0,0-1.41-1,11.24,11.24,0,0,0-1.71-.68q-.9-.28-1.84-.48h0l-1.34,1.34c.9.21,1.73.41,2.39.61a9.16,9.16,0,0,1,2.19.92,3.12,3.12,0,0,1,1.18,1.21,3.75,3.75,0,0,1,.35,1.71,3.63,3.63,0,0,1-.41,1.73,3.77,3.77,0,0,1-1.17,1.31,5.66,5.66,0,0,1-1.85.83,9.49,9.49,0,0,1-2.43.29,12.82,12.82,0,0,1-2.44-.22,6.26,6.26,0,0,1-2-.76,4.73,4.73,0,0,1-1.51-1.44,5.64,5.64,0,0,1-.83-2.27h-1.46a6.78,6.78,0,0,0,.65,2.56,5.43,5.43,0,0,0,1.6,1.94,7.55,7.55,0,0,0,2.58,1.24,13.22,13.22,0,0,0,3.58.43,9.39,9.39,0,0,0,2.91-.43,7.11,7.11,0,0,0,2.31-1.22,5.66,5.66,0,0,0,1.51-1.87,5.2,5.2,0,0,0,.54-2.37A4.83,4.83,0,0,0,388.39,100.95Z" transform="translate(-112.35 -87.83)" />
    <rect class="cls-1" x="175.16" y="0.37" width="11.3" height="1.48" />
    <rect class="cls-1" x="175.16" y="9.33" width="10.51" height="1.48" />
    <polygon class="cls-1" points="173.83 19.12 173.83 17.11 173.83 12.24 173.83 10.81 173.83 9.33 173.83 7.95 173.83 3.96 173.83 1.85 173.83 0.37 172.35 0.37 172.35 20.59 173.83 20.59 173.83 19.12" />
    <rect class="cls-1" x="175.16" y="19.12" width="11.8" height="1.48" />
</svg>